<svg xmlns="http://www.w3.org/2000/svg" width="48" height="48"><path fill-rule="evenodd" d="M24 0A24 24 0 0 0 0 24a24 24 0 0 0 24 24 24 24 0 0 0 24-24A24 24 0 0 0 24 0zm4.488 11.004a9.764 9.764 0 0 1 5.717 1.629 9.788 9.788 0 0 1 3.576 12.004l1.211 5.76a.5.5 0 0 1-.629.582l-5.134-1.481a9.763 9.763 0 0 1-7.678.508 8.281 8.281 0 0 1-1.276 2.392 8.328 8.328 0 0 1-10.343 2.344L9.64 35.98a.5.5 0 0 1-.63-.584l1.012-4.83a8.323 8.323 0 0 1 3.053-10.18 8.306 8.306 0 0 1 5.576-1.331c.166.019.33.05.494.08a9.771 9.771 0 0 1 9.342-8.13zm.032.992a8.778 8.778 0 0 0-8.399 7.37 8.298 8.298 0 0 1 3.649 2.277c.106.114.201.234.3.353h10.424a.5.5 0 1 1 0 1h-9.707a8.334 8.334 0 0 1 1.035 6.045c2.277.816 4.858.7 7.121-.514a.5.5 0 0 1 .225-.06.5.5 0 0 1 .166.023.5.5 0 0 1 .059.014l4.449 1.285-1.06-5.053a.5.5 0 0 1-.005-.023.5.5 0 0 1 .03-.326 8.782 8.782 0 0 0-3.155-10.922 8.767 8.767 0 0 0-5.132-1.467v-.002zm-5.061 4.002a.5.5 0 0 1 .05 0H34.49a.5.5 0 1 1 0 1H23.51a.5.5 0 0 1-.051-1zm0 3a.5.5 0 0 1 .05 0H34.49a.5.5 0 1 1 0 1H23.51a.5.5 0 0 1-.051-1zm-5.553 1a7.306 7.306 0 0 0-4.277 1.22 7.315 7.315 0 0 0-2.627 9.1.5.5 60.003 0 1 .023.334.5.5 0 0 1 0 .01l-.863 4.127 3.62-1.045a.5.5 0 0 1 .04-.01.5.5 60.003 0 1 .397.036 7.32 7.32 0 0 0 9.263-1.983 7.316 7.316 0 0 0-.445-9.46 7.314 7.314 0 0 0-5.13-2.329zm-4.447 4a.5.5 0 0 1 .05 0h8.985a.5.5 0 1 1 0 1H13.51a.5.5 0 0 1-.051-1zm13.783 1a.5.5 0 0 1 .051 0h2.404a.5.5 0 1 1 0 1h-2.404a.5.5 0 0 1-.05-1zm-13.783 2a.5.5 0 0 1 .05 0h8.985a.5.5 0 1 1 0 1H13.51a.5.5 0 0 1-.051-1zm-.008 3a.5.5 0 0 1 .051 0h4a.5.5 0 1 1 0 1h-4a.5.5 0 0 1-.05-1z"/></svg>