<svg width="30" height="30" viewBox="0 0 30 30" fill="none" xmlns="http://www.w3.org/2000/svg">
<circle cx="15" cy="15" r="15" fill="#EC9912"/>
<path d="M24.83 14.8347C24.83 20.3179 21.091 24.22 15.5693 24.22C10.2753 24.22 6 19.9265 6 14.61C6 9.2935 10.2753 5 15.5693 5C18.1469 5 20.3154 5.94938 21.9862 7.51488L19.3816 10.0298C15.9745 6.72825 9.63867 9.20825 9.63867 14.61C9.63867 17.9619 12.305 20.6783 15.5693 20.6783C19.3585 20.6783 20.7785 17.9503 21.0023 16.5359H15.5693V13.2305H24.6795C24.7683 13.7226 24.83 14.1954 24.83 14.8347Z" fill="white"/>
</svg>
