<svg width="80" height="65" viewBox="0 0 80 65" fill="none" xmlns="http://www.w3.org/2000/svg">
<path d="M19.4942 11C12.3442 11 6.49897 16.4959 6.49897 23.3507V46.2201L5.25493 46.933C4.49204 47.3694 3.26751 48.0348 2.44826 48.8687C1.13196 50.2288 0.297794 51.9805 0.0728875 53.8569C-0.0159724 54.5655 0.00136616 55.4686 0.00136616 56.0216V65H39V54.6973C38.9697 52.2496 37.925 49.9618 36.1522 48.4518C35.6168 47.9981 34.9168 47.6049 34.466 47.3457L32.4851 46.2115V23.3507C32.4851 18.7232 29.8193 14.6985 25.8964 12.5922C25.6177 12.4422 25.3336 12.3024 25.0447 12.1731H25.036C24.782 12.0596 24.5247 11.9537 24.2644 11.8555C22.7391 11.2891 21.1219 11.0007 19.4942 11.0043V11ZM19.4942 13.1603C21.3677 13.1582 23.213 13.616 24.867 14.4933C28.1439 16.254 30.3177 19.5485 30.3177 23.3507V44.9671L26.7959 42.945C25.7772 42.3617 25.166 41.3032 25.166 40.1647V37.5139C25.3438 37.3281 25.5453 37.1618 25.7079 36.963C27.2358 35.09 28.1678 32.6747 28.1678 30.2703V25.1719C28.1678 25.1027 28.1634 25.0919 28.1634 25.1308C28.1634 25.1524 28.1678 25.1805 28.1678 25.0855L28.1591 22.8517C28.1576 22.6087 28.074 22.3734 27.9218 22.1837C27.7696 21.994 27.5577 21.8609 27.3203 21.806C25.8379 21.4604 24.5028 21.0067 23.5579 20.2744H23.5536C23.3632 20.1271 23.1291 20.0473 22.8882 20.0475C22.5653 19.9136 22.2597 19.717 21.9151 19.717V19.7062C21.3364 19.7062 20.7577 19.892 20.2766 20.2636C19.7954 20.6373 18.3585 20.9354 16.7395 20.9678C15.1184 21.0002 13.3477 20.862 11.9801 20.862C11.7113 20.8617 11.4519 20.961 11.2525 21.1407C11.053 21.3204 10.9277 21.5675 10.9008 21.8341L10.8358 22.4714C10.8316 22.5087 10.8295 22.5462 10.8293 22.5838V25.079C10.8293 25.1654 10.8336 25.2108 10.8336 25.1243C10.8336 25.0963 10.8293 25.0682 10.8293 25.1762V30.2724C10.8293 32.6769 11.7612 35.0879 13.2892 36.9609C13.4474 37.1553 13.6446 37.3173 13.818 37.501V39.132C13.818 40.9186 12.8514 42.5735 11.2649 43.483L8.66412 44.9779V23.3529C8.66629 17.7165 13.4517 13.1603 19.4942 13.1603ZM21.9216 21.8557C22.0322 21.8579 22.1389 21.8966 22.225 21.9659C22.377 22.0846 22.5581 22.1607 22.7495 22.1863C23.753 22.8452 24.867 23.2405 25.9961 23.5451L26.0005 25.079C26.0005 25.0336 25.9961 25.0422 25.9961 25.1135C25.9961 25.2475 26.0005 25.1935 26.0005 25.1611V30.2595C26.0005 32.0893 25.2419 34.0963 24.0282 35.5869C23.7248 35.9585 23.3997 36.2933 23.0529 36.5915H22.9987V36.6282C21.9649 37.4966 20.7556 38.0173 19.4985 38.0173C18.2328 38.0173 17.0234 37.4945 15.9853 36.6152V36.5936H15.955C15.5983 36.2879 15.2697 35.951 14.9732 35.5869C13.7595 34.0963 12.9966 32.0871 12.9966 30.2573V25.1589C12.9966 25.2604 13.0009 25.2021 13.0009 25.1179C13.0009 24.999 12.9966 25.0401 12.9966 25.0725V23.0374C14.1301 23.072 15.385 23.1498 16.7807 23.1239C18.5514 23.0871 20.3026 22.9726 21.6073 21.9616V21.9659H21.6116C21.6993 21.8967 21.8076 21.8586 21.9194 21.8579L21.9216 21.8557ZM15.9766 39.2357C17.0484 39.8513 18.2616 40.1803 19.4985 40.1906C20.7599 40.1906 21.9411 39.8363 22.9987 39.253V40.1647C22.9987 42.0831 24.039 43.8589 25.7165 44.818L27.3334 45.747C27.3271 45.7957 27.3242 45.8448 27.3247 45.8939C27.3222 47.3053 26.9428 48.6906 26.2255 49.9075C25.5082 51.1244 24.4788 52.129 23.2431 52.8181C22.0074 53.5072 20.6099 53.856 19.1942 53.8286C17.7785 53.8012 16.3957 53.3986 15.1877 52.6623C14.0278 51.9519 13.0704 50.9564 12.4073 49.7712C11.7443 48.586 11.398 47.2509 11.4014 45.8939L12.3485 45.3495C13.4324 44.7305 14.3365 43.8417 14.9724 42.7701C15.6083 41.6984 15.9544 40.4806 15.9766 39.2357ZM29.4248 46.946L33.3867 49.2187C33.8093 49.4628 34.518 49.9035 34.7456 50.0979C36.0113 51.1738 36.2039 52.8502 36.2277 54.6973L36.0678 62.8397H32.7191L32.5 63H31L30.5518 62.8397H7.81887V59.4177H5.65155V62.8397H2.16868V56.0216C2.16868 55.4534 2.17302 54.531 2.22286 54.127C2.39206 52.7197 3.01495 51.4051 3.99789 50.3809C4.38368 49.9878 5.59737 49.223 6.33859 48.7974L9.30131 47.0972C9.49976 48.7444 10.1023 50.3174 11.0556 51.6772C12.009 53.0371 13.2838 54.1418 14.7673 54.8938C16.2509 55.6458 17.8974 56.0218 19.5614 55.9887C21.2254 55.9555 22.8556 55.5142 24.3078 54.7038C25.7212 53.9132 26.9237 52.796 27.8141 51.446C28.7045 50.0961 29.2569 48.5529 29.4248 46.946Z" fill="white"/>
<path fill-rule="evenodd" clip-rule="evenodd" d="M56.3557 0L56.2786 1.20644C56.2529 1.61637 56.0626 1.90436 55.646 2.20014C55.1651 2.51703 54.6118 2.70459 54.0389 2.74498H48.4254C44.5606 2.74498 41.4234 5.96216 41.4234 9.87986V15.0689C41.4234 15.2712 41.4286 15.3335 41.4286 15.1363C41.4286 15.0222 41.4234 14.9884 41.4234 15.2038V17.448C41.4148 17.5343 41.4148 17.6212 41.4234 17.7075V22.2063C41.4334 24.876 42.3419 27.4631 44 29.5436V35.5524L43.946 35.76L31.328 43.0324C29.7097 43.9669 28.3647 45.316 27.4291 46.9434C26.4935 48.5708 26.0005 50.4186 26 52.2999V65H80V52.0483C80 48.3744 78.0457 44.9808 74.888 43.1595L62 35.7314V29.5436C63.584 27.5199 64.5714 24.9928 64.5714 22.2063V18.4158C64.5752 18.3587 64.5752 18.3015 64.5714 18.2445V15.2038C64.5714 15.0351 64.5689 15.0403 64.5663 15.1415C64.5663 15.2271 64.5714 15.2712 64.5714 15.0766V7.38914L64.5611 7.3113C64.3066 5.33948 63.7126 3.54928 62.5529 2.18457C61.3931 0.822457 59.6343 -0.00518938 57.554 0.00518862V0H56.3557ZM58.0271 2.77871V2.78649C59.12 2.89806 60.002 3.16529 60.5986 3.8684C61.2929 4.68567 61.784 5.98292 62 7.60188V15.074C62 14.8924 61.9974 14.9443 61.9949 15.1259C61.9949 15.362 62 15.3335 62 15.1882V15.4736C61.4651 15.209 60.9123 15.0014 60.3543 14.8976C58.8217 14.6148 57.2609 14.7342 55.772 14.7964C54.2831 14.8587 52.8766 14.8691 51.7503 14.5551C50.6189 14.2412 49.7549 13.699 49.0066 12.3913C48.8883 12.1839 48.7154 12.0135 48.5071 11.899C48.2988 11.7845 48.0632 11.7304 47.8263 11.7427C47.555 11.7569 47.2952 11.8575 47.0841 12.03C46.873 12.2024 46.7214 12.4379 46.6511 12.7027C46.6974 12.5288 46.502 12.9777 46.1549 13.3928C45.8051 13.8105 45.3269 14.3061 44.8177 14.7627C44.5349 15.017 44.2726 15.1908 43.9949 15.4061V15.1856C43.9949 15.375 44 15.3153 44 15.1233C44 14.8898 43.9949 14.9106 43.9949 15.0585V9.86948C43.9949 7.32168 45.9569 5.3291 48.4254 5.3291H54.2111C55.2191 5.26164 56.2503 4.93993 57.1323 4.30946C57.5951 3.98256 57.716 3.3028 58.0271 2.77871ZM48.2557 14.8431C49.1531 15.7149 49.9966 16.7553 51.0663 17.0536C52.6966 17.5077 54.3474 17.4558 55.8774 17.3909C57.4074 17.3261 58.8243 17.2482 59.8863 17.448C60.8583 17.6296 61.4806 17.9513 62 18.7349V22.1908C62 27.3279 58.0014 31.409 53 31.409C47.9986 31.409 43.9949 27.3253 43.9949 22.1908V18.5273C44.2366 18.4028 44.4706 18.2679 44.7149 18.1122C45.3191 17.723 45.9414 17.2301 46.5303 16.6982C47.1217 16.1689 47.672 15.6033 48.1246 15.0637C48.1811 14.9962 48.1991 14.9106 48.2531 14.8431H48.2557ZM46.5714 32.0213C48.4673 33.3218 50.7074 34.0161 53 34.0139C55.3811 34.0139 57.59 33.2796 59.4286 32.0213V37.0443C58.3897 38.9979 57.4743 41.0631 55.1703 43.0428L53.0309 45.0561L50.8709 42.9312C49.0914 40.9801 47.4046 38.6762 46.5714 36.4916V32.0213ZM42.9971 39.2989L41.4337 45.1417L41.4234 45.2325C41.1817 47.251 43.3186 48.94 45.1649 48.0553H45.1751L49.958 45.658L51.7143 47.3808V62.4055H38.8623V54.6428H36.2909V62.4055H28.5714V52.2999C28.5714 49.4019 30.1091 46.7269 32.6034 45.287L42.9971 39.2989ZM45.62 39.4286C46.4377 40.8945 47.2143 42.3344 48.2891 43.5902L44.0643 45.7073C43.9769 45.7488 43.9691 45.7073 43.9871 45.5568L45.6226 39.4312L45.62 39.4286ZM63.35 39.4961L73.61 45.4115C74.7697 46.0795 75.7337 47.0449 76.4043 48.21C77.0749 49.3751 77.4283 50.6984 77.4286 52.0457V62.4055H69.7606V54.6428H67.1891V62.4055H54.3114V47.3963L56.1834 45.6373L61.2466 48.0605H61.2569C63.1289 48.9167 65.3274 47.2796 65.0677 45.2221L65.0523 45.1054L65.0137 44.9886C65.0137 44.9886 64.3349 42.8456 63.6817 40.6558C63.5583 40.2407 63.4683 39.9034 63.35 39.4961ZM60.7991 39.9423C60.9431 40.4457 61.0614 40.8945 61.2157 41.416C61.8457 43.5227 62.4346 45.3726 62.4963 45.5724C62.5014 45.7073 62.4603 45.767 62.3163 45.7021L57.9706 43.6265C59.1483 42.3267 60.1717 41.115 60.7991 39.9423Z" fill="white"/>
</svg>
