<svg width="30" height="29" viewBox="0 0 30 29" fill="none" xmlns="http://www.w3.org/2000/svg">
<path fill-rule="evenodd" clip-rule="evenodd" d="M0 13.5094C0 12.274 0.541447 11.0966 1.48966 10.2702L11.9897 1.11869C13.701 -0.372895 16.299 -0.372897 18.0103 1.11869L28.5103 10.2702C29.4586 11.0966 30 12.274 30 13.5094V24.6421C30 27.0489 27.9853 29 25.5 29H21L20.9916 29H9.00838L9 29H4.5C2.01472 29 0 27.0489 0 24.6421V13.5094Z" fill="white"/>
<path d="M10.5 19.379C10.5 18.2744 11.3954 17.379 12.5 17.379H17.5C18.6046 17.379 19.5 18.2744 19.5 19.379V29H10.5V19.379Z" fill="black"/>
</svg>
