<svg xmlns="http://www.w3.org/2000/svg" width="47" height="47" fill="none">
<defs>
	<linearGradient id="a" x1="23.081" x2="23.081" y1="0" y2="46.162" gradientUnits="userSpaceOnUse">
	<stop stop-color="#123BCC"/>
	<stop offset="1" stop-color="#127CCC"/></linearGradient><clipPath id="b"><path fill="#fff" d="M11 11h24v24H11z"/></clipPath>
</defs>
<circle cx="23.081" cy="23.081" r="23.081" fill="url(#a)"/>
<g fill="#fff" clip-path="url(#b)"><path d="M29.09 15.54a8.613 8.613 0 0 0-12.18 12.18l4.676 4.68a2 2 0 0 0 2.828 0l4.676-4.676a8.614 8.614 0 0 0 0-12.184Zm-1.061 11.12-4.676 4.676a.5.5 0 0 1-.707 0l-4.675-4.676a7.112 7.112 0 1 1 10.059 0h-.001Z"/>
	<path d="M23 17.5a3.5 3.5 0 1 0 0 7 3.5 3.5 0 0 0 0-7Zm0 5.5a2 2 0 1 1 0-4 2 2 0 0 1 0 4Z"/>
</g>
</svg>
