<svg width="42" height="42" viewBox="0 0 42 42" fill="none" xmlns="http://www.w3.org/2000/svg">
<g clip-path="url(#clip0_13_160)">
<path d="M31.6575 7.94498C28.8309 5.11863 24.9973 3.53082 21 3.53082C17.0027 3.53082 13.1692 5.11863 10.3425 7.94498C7.51615 10.7716 5.92834 14.6052 5.92834 18.6025C5.92834 22.5998 7.51615 26.4333 10.3425 29.26L18.5255 37.45C19.1819 38.1061 20.0719 38.4747 21 38.4747C21.9281 38.4747 22.8182 38.1061 23.4745 37.45L31.6575 29.267C33.058 27.8672 34.169 26.2053 34.927 24.376C35.685 22.5468 36.0752 20.5861 36.0752 18.606C36.0752 16.6259 35.685 14.6652 34.927 12.836C34.169 11.0067 33.058 9.34473 31.6575 7.94498ZM29.8008 27.405L21.6178 35.588C21.4537 35.752 21.2312 35.8442 20.9991 35.8442C20.7671 35.8442 20.5446 35.752 20.3805 35.588L12.1993 27.405C10.4583 25.6642 9.27273 23.4462 8.79237 21.0315C8.31201 18.6169 8.55847 16.114 9.50059 13.8395C10.4427 11.5649 12.0382 9.62077 14.0852 8.25296C16.1322 6.88515 18.5389 6.15508 21.0009 6.15508C23.4628 6.15508 25.8695 6.88515 27.9166 8.25296C29.9636 9.62077 31.5591 11.5649 32.5012 13.8395C33.4433 16.114 33.6898 18.6169 33.2094 21.0315C32.729 23.4462 31.5434 25.6642 29.8025 27.405H29.8008Z" fill="white"/>
<path d="M21 11.375C19.7886 11.375 18.6044 11.7342 17.5971 12.4072C16.5899 13.0803 15.8048 14.0369 15.3412 15.1561C14.8777 16.2753 14.7564 17.5068 14.9927 18.6949C15.229 19.8831 15.8124 20.9744 16.669 21.831C17.5256 22.6876 18.6169 23.271 19.8051 23.5073C20.9932 23.7436 22.2247 23.6223 23.3439 23.1588C24.4631 22.6952 25.4197 21.9101 26.0928 20.9029C26.7658 19.8956 27.125 18.7114 27.125 17.5C27.125 15.8755 26.4797 14.3176 25.331 13.169C24.1824 12.0203 22.6245 11.375 21 11.375ZM21 21C20.3078 21 19.6311 20.7947 19.0555 20.4101C18.4799 20.0256 18.0313 19.4789 17.7664 18.8394C17.5015 18.1998 17.4322 17.4961 17.5673 16.8172C17.7023 16.1383 18.0356 15.5146 18.5251 15.0251C19.0146 14.5356 19.6383 14.2023 20.3172 14.0673C20.9961 13.9322 21.6999 14.0015 22.3394 14.2664C22.9789 14.5313 23.5256 14.9799 23.9101 15.5555C24.2947 16.1311 24.5 16.8078 24.5 17.5C24.5 18.4283 24.1313 19.3185 23.4749 19.9749C22.8185 20.6312 21.9283 21 21 21Z" fill="white"/>
</g>
<defs>
<clipPath id="clip0_13_160">
<rect width="42" height="42" fill="white"/>
</clipPath>
</defs>
</svg>
