<svg width="20" height="20" viewBox="0 0 20 20" fill="none" xmlns="http://www.w3.org/2000/svg">
<path d="M0 10C0 4.47715 4.47715 0 10 0C15.5228 0 20 4.47715 20 10C20 15.5228 15.5228 20 10 20C4.47715 20 0 15.5228 0 10Z" fill="#F37311" fill-opacity="0.2"/>
<path d="M13.936 9.216C13.936 9.664 13.828 10.084 13.612 10.476C13.404 10.868 13.072 11.184 12.616 11.424C12.168 11.664 11.6 11.784 10.912 11.784H9.508V15H7.828V6.624H10.912C11.56 6.624 12.112 6.736 12.568 6.96C13.024 7.184 13.364 7.492 13.588 7.884C13.82 8.276 13.936 8.72 13.936 9.216ZM10.84 10.428C11.304 10.428 11.648 10.324 11.872 10.116C12.096 9.9 12.208 9.6 12.208 9.216C12.208 8.4 11.752 7.992 10.84 7.992H9.508V10.428H10.84Z" fill="#F37311"/>
</svg>
