<svg width="375" height="452" viewBox="0 0 375 452" fill="none" xmlns="http://www.w3.org/2000/svg">
<g filter="url(#filter0_d_22_495)">
<path d="M325.255 8.32701C323.578 8.32701 321.969 7.6604 320.783 6.47386C319.597 5.28732 318.93 3.67803 318.93 2H300.859C300.859 3.67803 300.192 5.28732 299.006 6.47386C297.82 7.6604 296.211 8.32701 294.534 8.32701C292.856 8.32701 291.248 7.6604 290.061 6.47386C288.875 5.28732 288.209 3.67803 288.209 2H270.137C270.137 3.67803 269.471 5.28732 268.285 6.47386C267.099 7.6604 265.49 8.32701 263.812 8.32701C262.135 8.32701 260.526 7.6604 259.34 6.47386C258.154 5.28732 257.488 3.67803 257.488 2H239.416C239.416 3.67803 238.75 5.28732 237.564 6.47386C236.377 7.6604 234.769 8.32701 233.091 8.32701C231.414 8.32701 229.805 7.6604 228.619 6.47386C227.432 5.28732 226.766 3.67803 226.766 2H208.695C208.695 3.67803 208.028 5.28732 206.842 6.47386C205.656 7.6604 204.047 8.32701 202.37 8.32701C200.692 8.32701 199.083 7.6604 197.897 6.47386C196.711 5.28732 196.045 3.67803 196.045 2H177.973C177.973 3.67803 177.307 5.28732 176.121 6.47386C174.935 7.6604 173.326 8.32701 171.648 8.32701C169.971 8.32701 168.362 7.6604 167.176 6.47386C165.99 5.28732 165.323 3.67803 165.323 2H147.252C147.252 3.67803 146.586 5.28732 145.399 6.47386C144.213 7.6604 142.604 8.32701 140.927 8.32701C139.249 8.32701 137.641 7.6604 136.455 6.47386C135.268 5.28732 134.602 3.67803 134.602 2H116.531C116.531 3.67803 115.864 5.28732 114.678 6.47386C113.492 7.6604 111.883 8.32701 110.206 8.32701C108.528 8.32701 106.919 7.6604 105.733 6.47386C104.547 5.28732 103.881 3.67803 103.881 2H85.8092C85.8092 3.67803 85.1428 5.28732 83.9567 6.47386C82.7705 7.6604 81.1617 8.32701 79.4842 8.32701C77.8067 8.32701 76.198 7.6604 75.0118 6.47386C73.8256 5.28732 73.1592 3.67803 73.1592 2H55.0878C55.0878 3.67803 54.4215 5.28732 53.2353 6.47386C52.0491 7.6604 50.4403 8.32701 48.7629 8.32701C47.0854 8.32701 45.4766 7.6604 44.2904 6.47386C43.1042 5.28732 42.4379 3.67803 42.4379 2H21.8545L4 19.8421V445.794H11.0478C9.90502 444.085 9.24772 442.097 9.14614 440.044C9.04456 437.99 9.50251 435.947 10.4711 434.134C11.4397 432.32 12.8825 430.803 14.6455 429.746C16.4085 428.689 18.4255 428.13 20.4811 428.13C22.5367 428.13 24.5537 428.689 26.3167 429.746C28.0797 430.803 29.5226 432.32 30.4911 434.134C31.4597 435.947 31.9177 437.99 31.8161 440.044C31.7145 442.097 31.0572 444.085 29.9144 445.794H41.3174C40.326 444.319 39.6941 442.632 39.4725 440.868C39.2509 439.104 39.4458 437.313 40.0416 435.638C40.6373 433.964 41.6172 432.452 42.9028 431.225C44.1883 429.997 45.7436 429.089 47.4437 428.572C49.1439 428.054 50.9416 427.943 52.6925 428.247C54.4434 428.551 56.0988 429.261 57.5257 430.32C58.9526 431.38 60.1113 432.759 60.9088 434.348C61.7062 435.936 62.1203 437.69 62.1176 439.467C62.1229 441.72 61.4559 443.923 60.202 445.794H71.6051C70.4623 444.085 69.805 442.097 69.7034 440.044C69.6018 437.99 70.0598 435.947 71.0283 434.134C71.9969 432.32 73.4397 430.803 75.2028 429.746C76.9658 428.689 78.9828 428.13 81.0384 428.13C83.094 428.13 85.111 428.689 86.874 429.746C88.637 430.803 90.0798 432.32 91.0484 434.134C92.017 435.947 92.4749 437.99 92.3733 440.044C92.2718 442.097 91.6145 444.085 90.4716 445.794H101.875C100.728 444.083 100.068 442.092 99.9644 440.034C99.8611 437.976 100.319 435.929 101.288 434.111C102.258 432.293 103.703 430.773 105.47 429.713C107.236 428.653 109.257 428.093 111.317 428.093C113.377 428.093 115.398 428.653 117.164 429.713C118.931 430.773 120.376 432.293 121.345 434.111C122.315 435.929 122.773 437.976 122.67 440.034C122.566 442.092 121.906 444.083 120.759 445.794H132.162C131.02 444.085 130.362 442.097 130.261 440.044C130.159 437.99 130.617 435.947 131.586 434.134C132.554 432.32 133.997 430.803 135.76 429.746C137.523 428.689 139.54 428.13 141.596 428.13C143.651 428.13 145.668 428.689 147.431 429.746C149.194 430.803 150.637 432.32 151.606 434.134C152.574 435.947 153.032 437.99 152.931 440.044C152.829 442.097 152.172 444.085 151.029 445.794H162.432C161.44 444.319 160.809 442.632 160.587 440.868C160.365 439.104 160.56 437.313 161.156 435.638C161.752 433.964 162.732 432.452 164.017 431.225C165.303 429.997 166.858 429.089 168.558 428.572C170.258 428.054 172.056 427.943 173.807 428.247C175.558 428.551 177.213 429.261 178.64 430.32C180.067 431.38 181.226 432.759 182.023 434.348C182.821 435.936 183.235 437.69 183.232 439.467C183.229 441.719 182.562 443.919 181.317 445.794H192.72C191.577 444.085 190.919 442.097 190.818 440.044C190.716 437.99 191.174 435.947 192.143 434.134C193.111 432.32 194.554 430.803 196.317 429.746C198.08 428.689 200.097 428.13 202.153 428.13C204.208 428.13 206.225 428.689 207.988 429.746C209.751 430.803 211.194 432.32 212.163 434.134C213.131 435.947 213.589 437.99 213.488 440.044C213.386 442.097 212.729 444.085 211.586 445.794H222.989C221.846 444.085 221.189 442.097 221.087 440.044C220.986 437.99 221.444 435.947 222.412 434.134C223.381 432.32 224.824 430.803 226.587 429.746C228.35 428.689 230.367 428.13 232.422 428.13C234.478 428.13 236.495 428.689 238.258 429.746C240.021 430.803 241.464 432.32 242.433 434.134C243.401 435.947 243.859 437.99 243.757 440.044C243.656 442.097 242.999 444.085 241.856 445.794H253.259C252.112 444.083 251.452 442.092 251.348 440.034C251.245 437.976 251.703 435.929 252.673 434.111C253.642 432.293 255.088 430.773 256.854 429.713C258.62 428.653 260.641 428.093 262.701 428.093C264.761 428.093 266.782 428.653 268.548 429.713C270.315 430.773 271.76 432.293 272.73 434.111C273.699 435.929 274.157 437.976 274.054 440.034C273.95 442.092 273.29 444.083 272.143 445.794H283.546C282.404 444.085 281.746 442.097 281.645 440.044C281.543 437.99 282.001 435.947 282.97 434.134C283.938 432.32 285.381 430.803 287.144 429.746C288.907 428.689 290.924 428.13 292.98 428.13C295.035 428.13 297.052 428.689 298.815 429.746C300.578 430.803 302.021 432.32 302.99 434.134C303.958 435.947 304.416 437.99 304.315 440.044C304.213 442.097 303.556 444.085 302.413 445.794H313.816C312.825 444.319 312.193 442.632 311.971 440.868C311.75 439.104 311.944 437.313 312.54 435.638C313.136 433.964 314.116 432.452 315.401 431.225C316.687 429.997 318.242 429.089 319.942 428.572C321.643 428.054 323.44 427.943 325.191 428.247C326.942 428.551 328.597 429.261 330.024 430.32C331.451 431.38 332.61 432.759 333.407 434.348C334.205 435.936 334.619 437.69 334.616 439.467C334.613 441.719 333.947 443.919 332.701 445.794H344.104C342.961 444.085 342.304 442.097 342.202 440.044C342.1 437.99 342.558 435.947 343.527 434.134C344.496 432.32 345.938 430.803 347.701 429.746C349.464 428.689 351.481 428.13 353.537 428.13C355.593 428.13 357.61 428.689 359.373 429.746C361.136 430.803 362.578 432.32 363.547 434.134C364.516 435.947 364.974 437.99 364.872 440.044C364.77 442.097 364.113 444.085 362.97 445.794H370.018V19.8421L352.164 2H331.58C331.58 3.67803 330.914 5.28732 329.728 6.47386C328.542 7.6604 326.933 8.32701 325.255 8.32701Z" fill="#F37311"/>
</g>
<defs>
<filter id="filter0_d_22_495" x="0" y="0" width="374.018" height="451.794" filterUnits="userSpaceOnUse" color-interpolation-filters="sRGB">
<feFlood flood-opacity="0" result="BackgroundImageFix"/>
<feColorMatrix in="SourceAlpha" type="matrix" values="0 0 0 0 0 0 0 0 0 0 0 0 0 0 0 0 0 0 127 0" result="hardAlpha"/>
<feOffset dy="2"/>
<feGaussianBlur stdDeviation="2"/>
<feComposite in2="hardAlpha" operator="out"/>
<feColorMatrix type="matrix" values="0 0 0 0 0 0 0 0 0 0 0 0 0 0 0 0 0 0 0.25 0"/>
<feBlend mode="normal" in2="BackgroundImageFix" result="effect1_dropShadow_22_495"/>
<feBlend mode="normal" in="SourceGraphic" in2="effect1_dropShadow_22_495" result="shape"/>
</filter>
</defs>
</svg>
