<svg width="375" height="303" viewBox="0 0 375 303" fill="none" xmlns="http://www.w3.org/2000/svg">
<g filter="url(#filter0_d_119_2)">
<path d="M370.018 6H362.97C364.113 7.70917 364.77 9.69675 364.872 11.7505C364.974 13.8042 364.516 15.847 363.547 17.6607C362.578 19.4743 361.136 20.9908 359.373 22.0481C357.61 23.1055 355.593 23.6639 353.537 23.6639C351.481 23.6639 349.464 23.1055 347.701 22.0481C345.938 20.9908 344.496 19.4743 343.527 17.6607C342.558 15.847 342.1 13.8042 342.202 11.7505C342.304 9.69675 342.961 7.70917 344.104 6H332.701C333.692 7.47521 334.324 9.16241 334.546 10.9261C334.767 12.6899 334.572 14.481 333.977 16.1557C333.381 17.8305 332.401 19.3422 331.115 20.5695C329.83 21.7968 328.275 22.7055 326.574 23.2226C324.874 23.7398 323.076 23.851 321.326 23.5473C319.575 23.2437 317.919 22.5336 316.492 21.4741C315.065 20.4146 313.907 19.0352 313.109 17.4466C312.312 15.8581 311.898 14.1046 311.9 12.327C311.895 10.0743 312.562 7.87126 313.816 6H302.413C303.556 7.70917 304.213 9.69675 304.315 11.7505C304.416 13.8042 303.958 15.847 302.99 17.6607C302.021 19.4743 300.578 20.9908 298.815 22.0481C297.052 23.1055 295.035 23.6639 292.98 23.6639C290.924 23.6639 288.907 23.1055 287.144 22.0481C285.381 20.9908 283.938 19.4743 282.97 17.6607C282.001 15.847 281.543 13.8042 281.645 11.7505C281.746 9.69675 282.404 7.70917 283.546 6H272.143C273.29 7.71157 273.95 9.70268 274.054 11.7605C274.157 13.8184 273.699 15.8656 272.73 17.6834C271.76 19.5013 270.315 21.0213 268.548 22.0812C266.782 23.1411 264.761 23.701 262.701 23.701C260.641 23.701 258.62 23.1411 256.854 22.0812C255.088 21.0213 253.642 19.5013 252.673 17.6834C251.703 15.8656 251.245 13.8184 251.348 11.7605C251.452 9.70268 252.112 7.71157 253.259 6H241.856C242.999 7.70917 243.656 9.69675 243.757 11.7505C243.859 13.8042 243.401 15.847 242.433 17.6607C241.464 19.4743 240.021 20.9908 238.258 22.0481C236.495 23.1055 234.478 23.6639 232.422 23.6639C230.367 23.6639 228.35 23.1055 226.587 22.0481C224.824 20.9908 223.381 19.4743 222.412 17.6607C221.444 15.847 220.986 13.8042 221.087 11.7505C221.189 9.69675 221.846 7.70917 222.989 6H211.586C212.736 7.71107 213.399 9.70273 213.505 11.7618C213.61 13.8209 213.154 15.87 212.185 17.6897C211.216 19.5095 209.771 21.0314 208.004 22.0926C206.236 23.1539 204.214 23.7145 202.153 23.7145C200.092 23.7145 198.069 23.1539 196.302 22.0926C194.535 21.0314 193.09 19.5095 192.121 17.6897C191.152 15.87 190.695 13.8209 190.801 11.7618C190.906 9.70273 191.57 7.71107 192.72 6H181.317C182.308 7.47521 182.94 9.16241 183.161 10.9261C183.383 12.6899 183.188 14.481 182.592 16.1557C181.997 17.8305 181.017 19.3422 179.731 20.5695C178.446 21.7968 176.89 22.7055 175.19 23.2226C173.49 23.7398 171.692 23.851 169.941 23.5473C168.191 23.2437 166.535 22.5336 165.108 21.4741C163.681 20.4146 162.523 19.0352 161.725 17.4466C160.928 15.8581 160.514 14.1046 160.516 12.327C160.511 10.0743 161.178 7.87126 162.432 6H151.029C152.172 7.70917 152.829 9.69675 152.931 11.7505C153.032 13.8042 152.574 15.847 151.606 17.6607C150.637 19.4743 149.194 20.9908 147.431 22.0481C145.668 23.1055 143.651 23.6639 141.596 23.6639C139.54 23.6639 137.523 23.1055 135.76 22.0481C133.997 20.9908 132.554 19.4743 131.586 17.6607C130.617 15.847 130.159 13.8042 130.261 11.7505C130.362 9.69675 131.02 7.70917 132.162 6H120.759C121.906 7.71157 122.566 9.70268 122.67 11.7605C122.773 13.8184 122.315 15.8656 121.345 17.6834C120.376 19.5013 118.931 21.0213 117.164 22.0812C115.398 23.1411 113.377 23.701 111.317 23.701C109.257 23.701 107.236 23.1411 105.47 22.0812C103.703 21.0213 102.258 19.5013 101.288 17.6834C100.319 15.8656 99.8611 13.8184 99.9644 11.7605C100.068 9.70268 100.728 7.71157 101.875 6H90.4716C91.6145 7.70917 92.2718 9.69675 92.3733 11.7505C92.4749 13.8042 92.017 15.847 91.0484 17.6607C90.0798 19.4743 88.637 20.9908 86.874 22.0481C85.111 23.1055 83.094 23.6639 81.0384 23.6639C78.9828 23.6639 76.9658 23.1055 75.2028 22.0481C73.4397 20.9908 71.9969 19.4743 71.0283 17.6607C70.0598 15.847 69.6018 13.8042 69.7034 11.7505C69.805 9.69675 70.4623 7.70917 71.6051 6H60.202C61.1939 7.47585 61.8259 9.16385 62.0472 10.9284C62.2685 12.6929 62.073 14.4848 61.4763 16.16C60.8797 17.8352 59.8986 19.3471 58.6117 20.5741C57.3249 21.8012 55.7684 22.7092 54.067 23.2252C52.3657 23.7412 50.5672 23.8509 48.8158 23.5453C47.0644 23.2398 45.4091 22.5276 43.9829 21.4659C42.5566 20.4043 41.3992 19.0228 40.6036 17.4325C39.808 15.8421 39.3964 14.0873 39.4019 12.3089C39.4078 10.0635 40.0739 7.86942 41.3174 6H29.9144C31.0572 7.70917 31.7145 9.69675 31.8161 11.7505C31.9177 13.8042 31.4597 15.847 30.4911 17.6607C29.5226 19.4743 28.0797 20.9908 26.3167 22.0481C24.5537 23.1055 22.5367 23.6639 20.4811 23.6639C18.4255 23.6639 16.4085 23.1055 14.6455 22.0481C12.8825 20.9908 11.4397 19.4743 10.4711 17.6607C9.50251 15.847 9.04456 13.8042 9.14614 11.7505C9.24772 9.69675 9.90502 7.70917 11.0478 6H4V282.364L21.8545 300.224H42.4379C42.4379 298.546 43.1042 296.936 44.2904 295.75C45.4766 294.563 47.0854 293.897 48.7629 293.897C50.4403 293.897 52.0491 294.563 53.2353 295.75C54.4215 296.936 55.0878 298.546 55.0878 300.224H73.1592C73.1592 298.546 73.8256 296.936 75.0118 295.75C76.198 294.563 77.8067 293.897 79.4842 293.897C81.1617 293.897 82.7705 294.563 83.9567 295.75C85.1428 296.936 85.8092 298.546 85.8092 300.224H103.881C103.881 298.546 104.547 296.936 105.733 295.75C106.919 294.563 108.528 293.897 110.206 293.897C111.883 293.897 113.492 294.563 114.678 295.75C115.864 296.936 116.531 298.546 116.531 300.224H134.602C134.602 298.546 135.268 296.936 136.455 295.75C137.641 294.563 139.249 293.897 140.927 293.897C142.604 293.897 144.213 294.563 145.399 295.75C146.586 296.936 147.252 298.546 147.252 300.224H165.323C165.323 298.546 165.99 296.936 167.176 295.75C168.362 294.563 169.971 293.897 171.648 293.897C173.326 293.897 174.935 294.563 176.121 295.75C177.307 296.936 177.973 298.546 177.973 300.224H196.045C196.045 298.546 196.711 296.936 197.897 295.75C199.083 294.563 200.692 293.897 202.37 293.897C204.047 293.897 205.656 294.563 206.842 295.75C208.028 296.936 208.695 298.546 208.695 300.224H226.766C226.766 298.546 227.432 296.936 228.619 295.75C229.805 294.563 231.414 293.897 233.091 293.897C234.769 293.897 236.377 294.563 237.564 295.75C238.75 296.936 239.416 298.546 239.416 300.224H257.488C257.488 298.546 258.154 296.936 259.34 295.75C260.526 294.563 262.135 293.897 263.812 293.897C265.49 293.897 267.099 294.563 268.285 295.75C269.471 296.936 270.137 298.546 270.137 300.224H288.209C288.209 298.546 288.875 296.936 290.061 295.75C291.248 294.563 292.856 293.897 294.534 293.897C296.211 293.897 297.82 294.563 299.006 295.75C300.192 296.936 300.859 298.546 300.859 300.224H318.93C318.93 298.546 319.597 296.936 320.783 295.75C321.969 294.563 323.578 293.897 325.255 293.897C326.933 293.897 328.542 294.563 329.728 295.75C330.914 296.936 331.58 298.546 331.58 300.224H352.164L370.018 282.364V6Z" fill="#F37311" fill-opacity="0.1" shape-rendering="crispEdges"/>
</g>
<path d="M316.924 300.224C321.016 287.972 327.966 276.871 337.199 267.84C346.432 258.808 357.682 252.106 370.018 248.288V157.902C333.952 163.053 300.5 179.678 274.611 205.318C248.721 230.959 231.769 264.253 226.26 300.278H226.766C226.766 298.6 227.433 296.991 228.619 295.804C229.805 294.618 231.414 293.951 233.091 293.951C234.769 293.951 236.378 294.618 237.564 295.804C238.75 296.991 239.416 298.6 239.416 300.278H257.488C257.488 298.6 258.154 296.991 259.34 295.804C260.526 294.618 262.135 293.951 263.813 293.951C265.49 293.951 267.099 294.618 268.285 295.804C269.471 296.991 270.138 298.6 270.138 300.278H288.209C288.209 298.6 288.875 296.991 290.062 295.804C291.248 294.618 292.856 293.951 294.534 293.951C296.211 293.951 297.82 294.618 299.006 295.804C300.193 296.991 300.859 298.6 300.859 300.278L316.924 300.224Z" fill="#F37311" fill-opacity="0.31"/>
<path d="M4 154.847C36.9928 148.754 67.4402 133.016 91.496 109.622C115.552 86.2279 132.137 56.2267 139.156 23.4083C137.35 23.0117 135.669 22.1799 134.258 20.9852C132.847 19.7905 131.749 18.269 131.06 16.5532C130.37 14.8373 130.11 12.979 130.303 11.1398C130.495 9.30057 131.133 7.53617 132.162 6H120.759C121.906 7.71157 122.566 9.70268 122.67 11.7605C122.773 13.8184 122.315 15.8656 121.345 17.6834C120.376 19.5013 118.931 21.0214 117.164 22.0813C115.398 23.1412 113.377 23.701 111.317 23.701C109.257 23.701 107.236 23.1412 105.47 22.0813C103.703 21.0214 102.258 19.5013 101.288 17.6834C100.319 15.8656 99.8611 13.8184 99.9644 11.7605C100.068 9.70268 100.728 7.71157 101.875 6H90.4716C91.6145 7.70917 92.2718 9.69675 92.3733 11.7505C92.4749 13.8042 92.017 15.847 91.0484 17.6607C90.0798 19.4743 88.637 20.9908 86.874 22.0481C85.111 23.1055 83.094 23.6639 81.0384 23.6639C78.9828 23.6639 76.9658 23.1055 75.2028 22.0481C73.4397 20.9908 71.9969 19.4743 71.0283 17.6607C70.0598 15.847 69.6018 13.8042 69.7034 11.7505C69.805 9.69675 70.4623 7.70917 71.6051 6H60.202C61.3426 7.71069 61.9981 9.69876 62.0986 11.7525C62.1992 13.8063 61.7412 15.849 60.7733 17.663C59.8054 19.477 58.3638 20.9945 56.6021 22.054C54.8403 23.1135 52.8244 23.6752 50.7688 23.6795C49.319 23.6759 47.8833 23.3936 46.5401 22.8479C37.8462 41.0792 22.6826 55.4229 4 63.0877V154.847Z" fill="#F37311" fill-opacity="0.31"/>
<path d="M249.789 56.5979C251.156 56.5979 252.265 55.4891 252.265 54.1213C252.265 52.7536 251.156 51.6448 249.789 51.6448C248.422 51.6448 247.313 52.7536 247.313 54.1213C247.313 55.4891 248.422 56.5979 249.789 56.5979Z" fill="#0E418A"/>
<path d="M264.102 51.6629C263.609 51.6522 263.125 51.7887 262.71 52.055C262.295 52.3213 261.97 52.7052 261.774 53.1578C261.579 53.6103 261.523 54.1108 261.614 54.5953C261.705 55.0797 261.938 55.526 262.284 55.8771C262.63 56.2282 263.072 56.4681 263.555 56.5661C264.038 56.664 264.539 56.6157 264.995 56.4271C265.45 56.2386 265.838 55.9185 266.111 55.5077C266.383 55.097 266.527 54.6143 266.523 54.1214C266.519 53.477 266.263 52.8598 265.811 52.4007C265.359 51.9417 264.746 51.677 264.102 51.6629Z" fill="#0E418A"/>
<path d="M278.396 56.5979C279.764 56.5979 280.872 55.4891 280.872 54.1213C280.872 52.7536 279.764 51.6448 278.396 51.6448C277.029 51.6448 275.92 52.7536 275.92 54.1213C275.92 55.4891 277.029 56.5979 278.396 56.5979Z" fill="#0E418A"/>
<path d="M292.709 51.6629C292.217 51.6593 291.736 51.802 291.326 52.0727C290.917 52.3435 290.596 52.7301 290.407 53.1834C290.217 53.6366 290.167 54.1361 290.262 54.6182C290.356 55.1002 290.593 55.5432 290.94 55.8906C291.287 56.2381 291.73 56.4743 292.212 56.5693C292.694 56.6643 293.193 56.6137 293.646 56.424C294.099 56.2343 294.486 55.9141 294.757 55.5041C295.027 55.094 295.17 54.6127 295.166 54.1214C295.166 53.7985 295.103 53.4789 294.979 53.1806C294.856 52.8823 294.675 52.6113 294.446 52.383C294.218 52.1547 293.947 51.9736 293.649 51.8501C293.351 51.7265 293.031 51.6629 292.709 51.6629Z" fill="#0E418A"/>
<path d="M307.003 56.5979C308.37 56.5979 309.479 55.4891 309.479 54.1213C309.479 52.7536 308.37 51.6448 307.003 51.6448C305.636 51.6448 304.527 52.7536 304.527 54.1213C304.527 55.4891 305.636 56.5979 307.003 56.5979Z" fill="#0E418A"/>
<path d="M321.298 56.5979C322.665 56.5979 323.773 55.4891 323.773 54.1213C323.773 52.7536 322.665 51.6448 321.298 51.6448C319.93 51.6448 318.822 52.7536 318.822 54.1213C318.822 55.4891 319.93 56.5979 321.298 56.5979Z" fill="#0E418A"/>
<path d="M52.3229 255.194C51.8325 255.194 51.3531 255.339 50.9456 255.612C50.538 255.885 50.2207 256.273 50.0339 256.727C49.847 257.18 49.7991 257.679 49.8961 258.16C49.9931 258.641 50.2307 259.082 50.5787 259.428C50.9268 259.773 51.3696 260.008 51.8511 260.101C52.3325 260.195 52.8308 260.143 53.2829 259.953C53.735 259.763 54.1204 259.443 54.3902 259.033C54.6601 258.623 54.8022 258.143 54.7987 257.652C54.7987 257.328 54.7345 257.007 54.6099 256.707C54.4852 256.408 54.3026 256.136 54.0724 255.907C53.8423 255.679 53.5692 255.498 53.269 255.376C52.9687 255.253 52.6472 255.191 52.3229 255.194Z" fill="#0E418A"/>
<path d="M66.6174 255.194C66.127 255.194 65.6476 255.339 65.2401 255.612C64.8326 255.885 64.5153 256.273 64.3284 256.727C64.1416 257.18 64.0936 257.679 64.1906 258.16C64.2876 258.641 64.5252 259.082 64.8733 259.428C65.2213 259.773 65.6642 260.008 66.1456 260.101C66.627 260.195 67.1254 260.143 67.5775 259.953C68.0295 259.763 68.4149 259.443 68.6848 259.033C68.9546 258.623 69.0968 258.143 69.0932 257.652C69.0885 256.998 68.8255 256.373 68.3617 255.913C67.8979 255.452 67.2709 255.194 66.6174 255.194Z" fill="#0E418A"/>
<path d="M80.9119 255.194C80.4214 255.194 79.9421 255.339 79.5345 255.612C79.127 255.885 78.8097 256.273 78.6229 256.727C78.436 257.18 78.3881 257.679 78.4851 258.16C78.5821 258.641 78.8197 259.082 79.1677 259.428C79.5158 259.773 79.9586 260.008 80.44 260.101C80.9215 260.195 81.4198 260.143 81.8719 259.953C82.324 259.763 82.7094 259.443 82.9792 259.033C83.2491 258.623 83.3912 258.143 83.3877 257.652C83.3877 257.328 83.3235 257.007 83.1989 256.707C83.0742 256.408 82.8916 256.136 82.6614 255.907C82.4313 255.679 82.1582 255.498 81.858 255.376C81.5577 255.253 81.2361 255.191 80.9119 255.194Z" fill="#0E418A"/>
<path d="M95.2244 255.194C94.7332 255.19 94.252 255.333 93.8422 255.604C93.4323 255.874 93.1121 256.261 92.9225 256.714C92.7329 257.167 92.6823 257.667 92.7773 258.149C92.8722 258.631 93.1084 259.074 93.4557 259.421C93.8031 259.769 94.2459 260.005 94.7278 260.1C95.2097 260.195 95.709 260.144 96.1621 259.955C96.6152 259.765 97.0017 259.445 97.2724 259.035C97.543 258.625 97.6857 258.144 97.6821 257.652C97.6821 257.329 97.6185 257.01 97.495 256.711C97.3715 256.413 97.1905 256.142 96.9622 255.914C96.734 255.685 96.4631 255.504 96.1649 255.381C95.8667 255.257 95.5471 255.194 95.2244 255.194Z" fill="#0E418A"/>
<path d="M109.519 255.194C109.028 255.194 108.549 255.339 108.142 255.612C107.734 255.885 107.417 256.273 107.23 256.727C107.043 257.18 106.995 257.679 107.092 258.16C107.189 258.641 107.427 259.082 107.775 259.428C108.123 259.773 108.566 260.008 109.047 260.101C109.529 260.195 110.027 260.143 110.479 259.953C110.931 259.763 111.316 259.443 111.586 259.033C111.856 258.623 111.998 258.143 111.995 257.652C111.99 256.998 111.727 256.373 111.263 255.913C110.799 255.452 110.172 255.194 109.519 255.194Z" fill="#0E418A"/>
<path d="M123.759 255.194C123.269 255.194 122.789 255.339 122.382 255.612C121.974 255.885 121.657 256.273 121.47 256.727C121.283 257.18 121.235 257.679 121.332 258.16C121.429 258.641 121.667 259.082 122.015 259.428C122.363 259.773 122.806 260.008 123.287 260.101C123.769 260.195 124.267 260.143 124.719 259.953C125.171 259.763 125.557 259.443 125.827 259.033C126.096 258.623 126.239 258.143 126.235 257.652C126.235 257.328 126.171 257.007 126.046 256.707C125.922 256.408 125.739 256.136 125.509 255.907C125.279 255.679 125.006 255.498 124.705 255.376C124.405 255.253 124.083 255.191 123.759 255.194Z" fill="#0E418A"/>
<defs>
<filter id="filter0_d_119_2" x="0" y="0" width="374.018" height="302.224" filterUnits="userSpaceOnUse" color-interpolation-filters="sRGB">
<feFlood flood-opacity="0" result="BackgroundImageFix"/>
<feColorMatrix in="SourceAlpha" type="matrix" values="0 0 0 0 0 0 0 0 0 0 0 0 0 0 0 0 0 0 127 0" result="hardAlpha"/>
<feOffset dy="-2"/>
<feGaussianBlur stdDeviation="2"/>
<feComposite in2="hardAlpha" operator="out"/>
<feColorMatrix type="matrix" values="0 0 0 0 0 0 0 0 0 0 0 0 0 0 0 0 0 0 0.25 0"/>
<feBlend mode="normal" in2="BackgroundImageFix" result="effect1_dropShadow_119_2"/>
<feBlend mode="normal" in="SourceGraphic" in2="effect1_dropShadow_119_2" result="shape"/>
</filter>
</defs>
</svg>
