<svg width="41" height="41" viewBox="0 0 41 41" fill="none" xmlns="http://www.w3.org/2000/svg">
<path d="M37.9203 20.9046C38.3905 20.8507 38.8502 21.0681 39.1025 21.4634C39.3548 21.8587 39.3548 22.3619 39.1025 22.7573C38.8502 23.1526 38.3905 23.3699 37.9203 23.3161H36.1824V27.8638C36.1867 29.987 35.3353 32.0247 33.8159 33.5276C32.2965 35.0305 30.2339 35.875 28.083 35.875H26.7549C26.0758 35.875 25.5253 35.3316 25.5253 34.6612C25.5253 33.9908 26.0758 33.4474 26.7549 33.4474H28.083C31.1813 33.4119 33.6741 30.9224 33.6738 27.8638V23.3161H29.0667V25.1287C29.0667 26.1374 28.6608 27.1048 27.9382 27.818C27.2156 28.5313 26.2356 28.932 25.2138 28.932H15.8355C13.7076 28.932 11.9826 27.2292 11.9826 25.1287V23.3161H7.441V27.8638C7.441 30.9475 9.97348 33.4474 13.0975 33.4474H14.5075C15.1866 33.4474 15.7371 33.9908 15.7371 34.6612C15.7371 35.3316 15.1866 35.875 14.5075 35.875H13.1794C8.68376 35.8752 5.02663 32.3013 4.98167 27.8638V23.3161H3.07979C2.60961 23.3699 2.14985 23.1526 1.89758 22.7573C1.64531 22.3619 1.64531 21.8587 1.89758 21.4634C2.14985 21.0681 2.60961 20.8507 3.07979 20.9046H37.9203ZM25.1974 12.068C26.2192 12.068 27.1992 12.4687 27.9218 13.182C28.6444 13.8952 29.0503 14.8626 29.0503 15.8713V17.9591C29.055 18.0806 29.0081 18.1986 28.921 18.2846C28.8338 18.3706 28.7144 18.4168 28.5912 18.4122H12.4416C12.3185 18.4168 12.199 18.3706 12.1119 18.2846C12.0248 18.1986 11.9779 18.0806 11.9826 17.9591V15.8713C11.9826 13.7708 13.7076 12.068 15.8355 12.068H25.1974ZM28.083 5.125C32.5527 5.20443 36.1339 8.80423 36.1332 13.2171V14.9488C36.1332 15.6192 35.5826 16.1626 34.9035 16.1626C34.2244 16.1626 33.6738 15.6192 33.6738 14.9488V13.2171C33.6957 11.7334 33.1184 10.3022 32.0695 9.2394C31.0205 8.17661 29.5861 7.56968 28.083 7.55263H26.7549C26.0758 7.55263 25.5253 7.00919 25.5253 6.33882C25.5253 5.66844 26.0758 5.125 26.7549 5.125H28.083ZM14.4255 5.125C15.1009 5.13372 15.6463 5.67209 15.6552 6.33882C15.6463 7.00554 15.1009 7.54392 14.4255 7.55263H13.0975C11.583 7.55247 10.1317 8.15184 9.06847 9.21652C8.0053 10.2812 7.41905 11.7223 7.441 13.2171V14.9488C7.43217 15.6155 6.88677 16.1539 6.21134 16.1626H6.19494L6.02975 16.1496C5.43589 16.0628 4.98167 15.5576 4.98167 14.9488V13.2171C4.98145 8.77937 8.60201 5.16938 13.0975 5.125H14.4255Z" fill="white"/>
</svg>
