<svg xmlns="http://www.w3.org/2000/svg" width="34" height="25" viewBox="0 0 34 25">
  <g id="Group_235" data-name="Group 235" transform="translate(-4196 -4917)">
    <g id="sos" transform="translate(4193.5 4914.5)">
      <path id="Path_159" data-name="Path 159" d="M14.738,17.763,10.65,21.85q-.675-.6-1.312-1.238A35.518,35.518,0,0,1,5.85,16.525,22.285,22.285,0,0,1,3.4,12.262a10.528,10.528,0,0,1-.9-4.087,6.466,6.466,0,0,1,.45-2.413A5.753,5.753,0,0,1,4.387,3.675,3.662,3.662,0,0,1,6.988,2.5,2.349,2.349,0,0,1,8,2.725a2.038,2.038,0,0,1,.837.7l2.9,4.087a4.278,4.278,0,0,1,.5.875,1.976,1.976,0,0,1,.175.762,1.7,1.7,0,0,1-.263.888,4.252,4.252,0,0,1-.7.887l-.95.988a.669.669,0,0,0-.2.5,1.135,1.135,0,0,0,.037.287c.038.1.075.175.1.25a10.373,10.373,0,0,0,1.163,1.6c.563.65,1.162,1.313,1.813,1.975C13.863,16.962,14.3,17.388,14.738,17.763Z" opacity="0.4"/>
      <path id="Path_160" data-name="Path 160" d="M27.462,22.913a3.176,3.176,0,0,1-.312,1.362,5.158,5.158,0,0,1-.85,1.275,5.635,5.635,0,0,1-2.05,1.475c-.013,0-.025.013-.038.013a6.315,6.315,0,0,1-2.4.462,10.417,10.417,0,0,1-4.075-.913,21.955,21.955,0,0,1-4.3-2.475C12.95,23.75,12.462,23.388,12,23l4.087-4.087a7.023,7.023,0,0,0,.925.6c.063.025.137.063.225.1a.863.863,0,0,0,.313.05.688.688,0,0,0,.513-.212l.95-.937a3.835,3.835,0,0,1,.9-.7,1.665,1.665,0,0,1,.887-.263,2,2,0,0,1,.763.163,4.834,4.834,0,0,1,.875.488l4.138,2.938a1.9,1.9,0,0,1,.688.8A2.565,2.565,0,0,1,27.462,22.913Z" fill="#fff"/>
    </g>
    <text id="Help" transform="translate(4210 4927)" fill="#fff" font-size="9" font-family="Arial-BoldMT, Arial" font-weight="700"><tspan x="0" y="0">Help</tspan></text>
  </g>
</svg>
