<svg width="305" height="298" viewBox="0 0 305 298" fill="none" xmlns="http://www.w3.org/2000/svg">
<path d="M256.989 99.8243C250.601 97.3405 245.988 101.48 240.546 123.598C235.105 145.715 236.406 170.434 236.406 170.434H242.321C245.869 136.49 263.613 103.964 263.613 103.964C263.613 103.964 263.377 102.308 256.989 99.8243Z" fill="url(#paint0_linear_9_130)"/>
<path d="M238.417 176.703C232.62 175.283 228.007 187.111 228.954 193.025C229.9 198.938 239.008 200.24 241.966 190.659C244.923 181.079 242.16 177.62 238.417 176.703Z" fill="url(#paint1_linear_9_130)"/>
<path d="M221.738 143.231C209.859 137.818 203.592 148.301 200.823 162.879C200.821 162.885 200.82 162.89 200.819 162.895C197.288 177.001 188.509 195.863 184.831 193.26C180.224 190.002 193.111 167.595 193.348 150.209C193.456 142.263 185.304 143.23 178.443 146.069C181.367 148.366 179.241 166.856 175.734 173.305C173.359 177.671 170.319 181.384 166.677 183.021C170.135 169.527 171.191 155.225 161.527 153.52C149.461 151.391 141.89 179.067 152.3 187.122C154.448 188.784 156.587 189.714 158.651 190.136C153.639 202.943 137.168 216.615 134.793 201.066C132.855 188.386 140.471 170.806 148.752 162.628C138.46 155.413 129.707 165.702 125.448 176.585C121.19 187.467 119.77 209.701 134.439 213.722C148.126 217.475 159.648 203.719 164.588 190.052C168.367 189.215 171.544 187.094 173.548 185.452C172.045 197.791 174.635 208.124 183.53 203.433C191.702 199.123 197.007 185.892 199.091 179.765C199.038 181.392 199.014 183.018 199.016 184.63C199.044 205.271 217.244 201.541 219.374 194.444C215.825 194.444 210.383 191.96 211.921 171.972C213.457 151.984 221.738 143.231 221.738 143.231ZM158.688 161.8C163.776 159.538 164.312 164.133 160.33 183.723C150.578 181.63 153.849 163.95 158.688 161.8Z" fill="url(#paint2_linear_9_130)"/>
<path d="M104.478 185.894C99.1485 201.56 91.185 216.303 88.0344 215.379C84.8065 214.433 91.3802 194.917 94.4556 181.789C97.5309 168.66 101.317 147.962 92.3263 145.005C83.3359 142.048 78.1312 149.972 78.1312 149.972C87.0032 152.575 84.6375 164.165 81.7985 180.251C78.9595 196.337 70.7853 219.307 82.3897 223.066C89.7499 225.451 96.2456 214.489 100.431 204.767C89.8315 250.475 77.3122 271.448 58.3766 286.817C38.2672 303.139 14.3719 282.086 26.2014 255.592C38.0301 229.098 56.011 228.862 56.011 228.862C56.011 228.862 51.6645 216.785 35.1918 224.604C11.7699 235.722 -0.532243 286.344 38.5042 296.988C71.835 306.078 107.284 252.74 119.298 184.39C121.072 174.296 124.857 166.531 124.857 166.531C109.743 164.283 108.38 167.136 104.478 185.894Z" fill="url(#paint3_linear_9_130)"/>
<path d="M7.21466 78.4163C7.21466 78.4163 18.0384 54.4656 48.9127 45.9498C79.787 37.434 115.401 39.4622 139.939 27.6763C158.037 18.9831 148.456 0 148.456 0C148.456 0 143.31 12.9511 105.516 23.241C67.7212 33.5309 21.4537 43.7896 9.87623 51.9818C-1.65727 60.1428 -3.78653 71.3198 7.21466 78.4163Z" fill="url(#paint4_linear_9_130)"/>
<path d="M37.5565 164.461C58.3168 145.123 66.8339 102.012 73.2216 75.9325C79.6094 49.8529 85.8198 45.4176 85.8198 45.4176C68.6083 42.4016 63.2851 52.8689 59.5589 67.4167C55.8327 81.9645 51.929 111.77 41.6376 140.865C31.3462 169.961 13.4249 169.961 11.6505 156.3C9.87609 142.64 21.587 127.737 31.5236 124.898C26.023 114.254 5.44013 118.689 1.89136 140.139C-2.00164 163.67 20.4564 180.389 37.5565 164.461Z" fill="url(#paint5_linear_9_130)"/>
<path d="M304.069 102.722C297.327 111.06 261.484 84.4483 258.29 73.6261C268.227 68.1264 288.632 39.7404 276.389 35.1277C264.146 30.5149 251.37 52.8689 243.74 72.0294C252.79 25.0151 265.92 12.5963 265.92 12.5963C259.532 9.04803 254.032 6.74167 245.515 22.1765C236.998 37.6114 233.271 64.2233 231.639 76.166C227.15 87.4927 221.245 100.282 217.834 99.1863C211.801 97.2475 229.9 56.0616 222.98 50.7392C216.06 45.4169 203.817 55.8842 195.122 78.4156C196.897 66.5289 202.22 54.9971 202.22 54.9971C202.22 54.9971 191.751 50.5618 188.025 58.9002C184.949 65.7824 182.721 78.9457 181.637 87.9859C171.504 113.631 162.194 114.988 164.78 97.5761C167.442 79.6575 178.443 63.8678 178.443 63.8678C170.359 59.4353 165.439 61.4308 161.425 70.7499C155.301 55.149 137.996 68.4443 131.422 84.625C128.229 92.4851 126.853 100.682 127.287 107.425C119.765 124.602 112.757 124.829 115.275 111.237C117.936 96.8665 125.744 75.577 116.517 72.2061C107.29 68.8353 97.1761 88.8609 90.0785 105.56C94.8694 74.5125 109.419 44.8974 109.419 44.8974C109.419 44.8974 96.6438 40.8041 90.7883 53.9327C84.9328 67.0612 77.6578 96.6891 75.4952 112.124C73.3326 127.559 74.4639 133.768 85.82 133.413C89.0139 117.269 98.4181 91.3667 107.36 84.625C103.694 97.1879 97.531 128.623 108.71 130.397C117.263 131.755 125.291 120.033 128.593 114.448C130.023 118.643 132.559 121.531 136.213 122.236C143.596 123.661 150.69 112.14 153.986 105.812C154.162 112.747 156.472 116.859 161.764 117.446C169.037 118.255 177.224 105.271 180.75 98.9635C180.689 105.142 182.169 110.476 190.154 110.882C190.686 101.834 195.832 81.7864 202.575 71.3191C209.317 60.8517 214.64 55.352 209.495 70.6094C204.349 85.8669 202.397 105.56 213.043 106.269C220.983 106.799 228.326 95.1974 231.55 89.2612C232.533 94.4118 235.126 97.7968 240.014 98.1084C249.773 57.6583 268.475 35.5946 268.227 47.9006C267.979 60.2067 254.564 72.9158 248.531 76.6414C255.274 90.3022 272.485 109.818 284.374 115.317C296.262 120.817 304.424 111.947 304.069 102.722ZM144.75 111.415C138.285 112.15 141.536 87.1095 149.343 77.1744C154.443 70.6839 157.575 74.037 159.133 77.1418C156.707 82.7629 155.371 92.214 154.795 95.8652C151.924 103.239 148.121 111.032 144.75 111.415Z" fill="url(#paint6_linear_9_130)"/>
<defs>
<linearGradient id="paint0_linear_9_130" x1="249.942" y1="99.1868" x2="249.942" y2="170.434" gradientUnits="userSpaceOnUse">
<stop stop-color="#F37311"/>
<stop offset="1" stop-color="#EB9813"/>
</linearGradient>
<linearGradient id="paint1_linear_9_130" x1="236.021" y1="176.586" x2="236.021" y2="197.659" gradientUnits="userSpaceOnUse">
<stop stop-color="#F37311"/>
<stop offset="1" stop-color="#EB9813"/>
</linearGradient>
<linearGradient id="paint2_linear_9_130" x1="172.142" y1="141.784" x2="172.142" y2="214.349" gradientUnits="userSpaceOnUse">
<stop stop-color="#F37311"/>
<stop offset="1" stop-color="#EB9813"/>
</linearGradient>
<linearGradient id="paint3_linear_9_130" x1="69.0819" y1="144.344" x2="69.0819" y2="298" gradientUnits="userSpaceOnUse">
<stop stop-color="#F37311"/>
<stop offset="1" stop-color="#EB9813"/>
</linearGradient>
<linearGradient id="paint4_linear_9_130" x1="75.495" y1="0" x2="75.495" y2="78.4163" gradientUnits="userSpaceOnUse">
<stop stop-color="#F37311"/>
<stop offset="1" stop-color="#EB9813"/>
</linearGradient>
<linearGradient id="paint5_linear_9_130" x1="43.633" y1="44.8976" x2="43.633" y2="170.733" gradientUnits="userSpaceOnUse">
<stop stop-color="#F37311"/>
<stop offset="1" stop-color="#EB9813"/>
</linearGradient>
<linearGradient id="paint6_linear_9_130" x1="189.339" y1="9.98975" x2="189.339" y2="133.428" gradientUnits="userSpaceOnUse">
<stop stop-color="#F37311"/>
<stop offset="1" stop-color="#EB9813"/>
</linearGradient>
</defs>
</svg>
