<svg width="118" height="118" viewBox="0 0 118 118" fill="none" xmlns="http://www.w3.org/2000/svg">
<path d="M59 7.375C48.7896 7.375 38.8084 10.4028 30.3187 16.0754C21.829 21.748 15.2121 29.8107 11.3047 39.244C7.39737 48.6772 6.37502 59.0573 8.36698 69.0715C10.3589 79.0858 15.2757 88.2845 22.4956 95.5044C29.7155 102.724 38.9142 107.641 48.9285 109.633C58.9428 111.625 69.3228 110.603 78.7561 106.695C88.1893 102.788 96.252 96.171 101.925 87.6813C107.597 79.1916 110.625 69.2105 110.625 59C110.625 45.3082 105.186 32.1772 95.5044 22.4956C85.8228 12.814 72.6918 7.375 59 7.375ZM59 103.25C50.2482 103.25 41.6929 100.655 34.416 95.7925C27.1392 90.9303 21.4675 84.0194 18.1184 75.9337C14.7692 67.8481 13.8929 58.9509 15.6003 50.3673C17.3077 41.7836 21.5221 33.899 27.7105 27.7105C33.899 21.5221 41.7836 17.3076 50.3673 15.6003C58.9509 13.8929 67.8481 14.7692 75.9338 18.1183C84.0194 21.4675 90.9303 27.1391 95.7925 34.416C100.655 41.6929 103.25 50.2482 103.25 59C103.25 70.7358 98.588 81.991 90.2895 90.2895C81.991 98.588 70.7359 103.25 59 103.25Z" fill="white"/>
<path d="M83.7433 34.2569C83.4005 33.9113 82.9926 33.6369 82.5433 33.4497C82.0939 33.2625 81.6119 33.1661 81.1251 33.1661C80.6383 33.1661 80.1564 33.2625 79.707 33.4497C79.2577 33.6369 78.8498 33.9113 78.507 34.2569L59.0001 53.8006L39.4933 34.2569C38.7989 33.5625 37.8571 33.1724 36.8751 33.1724C35.8932 33.1724 34.9514 33.5625 34.257 34.2569C33.5626 34.9512 33.1726 35.893 33.1726 36.875C33.1726 37.857 33.5626 38.7988 34.257 39.4931L53.8008 59L34.257 78.5069C33.9114 78.8497 33.6371 79.2575 33.4499 79.7069C33.2626 80.1562 33.1663 80.6382 33.1663 81.125C33.1663 81.6118 33.2626 82.0938 33.4499 82.5431C33.6371 82.9925 33.9114 83.4003 34.257 83.7431C34.5998 84.0887 35.0077 84.3631 35.457 84.5503C35.9064 84.7375 36.3883 84.8339 36.8751 84.8339C37.3619 84.8339 37.8439 84.7375 38.2933 84.5503C38.7426 84.3631 39.1505 84.0887 39.4933 83.7431L59.0001 64.1994L78.507 83.7431C78.8498 84.0887 79.2577 84.3631 79.707 84.5503C80.1564 84.7375 80.6383 84.8339 81.1251 84.8339C81.6119 84.8339 82.0939 84.7375 82.5433 84.5503C82.9926 84.3631 83.4005 84.0887 83.7433 83.7431C84.0889 83.4003 84.3632 82.9925 84.5504 82.5431C84.7376 82.0938 84.834 81.6118 84.834 81.125C84.834 80.6382 84.7376 80.1562 84.5504 79.7069C84.3632 79.2575 84.0889 78.8497 83.7433 78.5069L64.1995 59L83.7433 39.4931C84.0889 39.1503 84.3632 38.7425 84.5504 38.2931C84.7376 37.8438 84.834 37.3618 84.834 36.875C84.834 36.3882 84.7376 35.9062 84.5504 35.4569C84.3632 35.0075 84.0889 34.5997 83.7433 34.2569Z" fill="white"/>
</svg>
